<svg id="Layer_1" data-name="Layer 1" xmlns="http://www.w3.org/2000/svg" viewBox="0 0 300 300"><defs><style>.cls-1,.cls-2{fill:none;stroke-linecap:round;stroke-linejoin:round;}.cls-1{stroke-width:19px;}.cls-2{stroke-width:13px;}</style></defs><title>Admin_Icons</title><path class="cls-1" d="M62.3,120.2a91,91,0,0,1,182,0"/><path class="cls-2" d="M172.79,260.48a91.16,91.16,0,0,0,71.33-62.33"/><rect class="cls-2" x="61.18" y="123.97" width="27.93" height="90.01"/><path class="cls-2" d="M261.82,124H290a0,0,0,0,1,0,0v90a0,0,0,0,1,0,0H261.82a45,45,0,0,1-45-45v0a45,45,0,0,1,45-45Z" transform="translate(506.77 337.95) rotate(180)"/><path class="cls-2" d="M61,124H89.11a0,0,0,0,1,0,0v90a0,0,0,0,1,0,0H61a45,45,0,0,1-45-45v0A45,45,0,0,1,61,124Z"/><rect class="cls-2" x="216.81" y="123.97" width="27.93" height="90.01" transform="translate(461.54 337.95) rotate(-180)"/><rect class="cls-2" x="124.44" y="250.41" width="47.68" height="18.88" rx="8.65"/></svg>